#!OML:ASF Y:\EmotionMaleHayes\Project 1\Capture day 1\Session 1\Male1.ASF
:FULLY-SPECIFIED
:DEGREES
685
root 38.7967 16.1152 16.7765 388.354 94.1741 393.797
lowerback 12.6868 4.46829 -2.75511
upperback 5.55181 5.85743 -2.41918
thorax -1.26315 3.04683 -1.76726
lowerneck -19.1489 7.59461 13.1283
upperneck 26.9616 10.9224 -11.6585
head 13.7658 4.86627 -4.82519
rclavicle 1.59028e-015 -2.06736e-014
rhumerus -27.4534 29.3705 -88.8954
rradius 73.2525
rwrist -25.8839
rhand -25.8384 -34.6754
rfingers 7.12502
rthumb 0.701842 -64.654
lclavicle 1.59028e-015 -2.06736e-014
lhumerus -57.6689 -4.55369 73.7047
lradius 20.8339
lwrist -12.0594
lhand -18.9391 -21.6456
lfingers 7.12502
lthumb 7.36398 8.20625
rfemur -7.64502 0.66384 12.5375
rtibia 63.856
rfoot -10.3422 3.34241
rtoes -8.12007
lfemur -14.9396 4.1234 -31.2584
ltibia 26.6553
lfoot -13.5358 12.6119
ltoes 33.1889
686
root 38.9653 16.1784 16.6918 371.983 95.4946 377.443
lowerback 13.1931 4.10035 -2.49808
upperback 5.75978 5.41092 -2.67812
thorax -1.27128 2.84494 -2.14738
lowerneck -18.9466 7.87236 13.433
upperneck 27.0762 11.5791 -12.4073
head 13.9625 5.11297 -5.06139
rclavicle 2.78299e-015 1.43125e-014
rhumerus -29.0411 29.449 -89.3223
rradius 71.1435
rwrist -26.1529
rhand -26.3316 -34.6693
rfingers 7.12502
rthumb 0.225521 -64.6489
lclavicle 2.78299e-015 1.43125e-014
lhumerus -56.3278 -5.57925 75.3923
lradius 21.6937
lwrist -10.083
lhand -19.7064 -21.831
lfingers 7.12502
lthumb 6.62325 8.04546
rfemur -9.15125 0.220225 10.9369
rtibia 63.2284
rfoot -11.7253 1.41261
rtoes -7.76453
lfemur -13.4359 2.77588 -32.7854
ltibia 25.8354
lfoot -13.6608 11.9628
ltoes 33.8358
687
root 39.1346 16.2168 16.6517 362.352 95.2887 366.942
lowerback 12.7273 4.48295 -3.30041
upperback 5.58776 5.82884 -2.92837
thorax -1.24185 3.04185 -1.9922
lowerneck -18.607 8.09205 13.4406
upperneck 27.1764 12.183 -12.8758
head 14.0775 5.34771 -5.14299
rclavicle 6.95746e-014 -1.51076e-014
rhumerus -30.9124 29.4301 -89.8653
rradius 68.9933
rwrist -26.3961
rhand -26.447 -34.8761
rfingers 7.12502
rthumb 0.114007 -64.8558
lclavicle 6.95746e-014 -1.51076e-014
lhumerus -55.3227 -7.06998 77.3888
lradius 23.0707
lwrist -7.38479
lhand -20.5778 -22.0596
lfingers 7.12502
lthumb 5.78201 7.84155
rfemur -12.5601 1.66891 9.52427
rtibia 63.0527
rfoot -13.1166 -0.134544
rtoes -9.36405
lfemur -13.2593 2.85892 -34.1789
ltibia 25.156
lfoot -13.831 11.5328
ltoes 34.046
688
root 39.3049 16.2715 16.6044 356.633 96.3019 360.673
lowerback 12.674 4.54086 -3.38835
upperback 5.54279 5.89936 -3.08379
thorax -1.25061 3.08039 -2.11233
lowerneck -19.1682 8.24283 12.4628
upperneck 28.0422 12.6504 -12.2526
head 14.5225 5.50862 -4.63237
rclavicle 8.28932e-014 -2.22639e-014
rhumerus -32.762 29.0832 -90.2651
rradius 66.8007
rwrist -26.5675
rhand -26.2491 -35.2713
rfingers 7.12502
rthumb 0.305199 -65.2508
lclavicle 8.28932e-014 -2.22639e-014
lhumerus -54.4105 -9.24969 79.6759
lradius 24.867
lwrist -4.1744
lhand -21.5131 -22.1514
lfingers 7.12502
lthumb 4.87892 7.7724
rfemur -15.1028 1.28536 7.9606
rtibia 62.0727
rfoot -14.0817 -0.715644
rtoes -11.6632
lfemur -12.6998 2.01837 -35.2099
ltibia 24.6885
lfoot -13.9077 11.1942
ltoes 33.4028
689
root 39.4761 16.333 16.5526 354.558 97.7255 358.205
lowerback 12.7464 4.3887 -3.26975
upperback 5.55702 5.71598 -3.19593
thorax -1.25366 2.99637 -2.27403
lowerneck -18.2007 8.39131 13.3782
upperneck 27.6461 13.0252 -13.2544
head 14.3723 5.70391 -5.13916
rclavicle -1.23246e-014 2.22639e-014
rhumerus -34.5022 29.2015 -90.6538
rradius 64.6749
rwrist -26.9508
rhand -25.9718 -35.9025
rfingers 7.12502
rthumb 0.572995 -65.8815
lclavicle -1.23246e-014 2.22639e-014
lhumerus -53.5141 -10.8423 81.2773
lradius 27.2181
lwrist -1.14217
lhand -21.7867 -21.2509
lfingers 7.12502
lthumb 4.61474 8.67879
rfemur -16.8104 2.06126 7.06403
rtibia 60.2513
rfoot -15.1409 -1.85044
rtoes -11.4801
lfemur -11.8116 1.08015 -36.0256
ltibia 24.071
lfoot -13.907 10.6648
ltoes 32.8618
690
root 39.6479 16.3956 16.5012 354.967 99.2128 358.359
lowerback 12.9355 4.14717 -3.07257
upperback 5.58732 5.41654 -3.1155
thorax -1.31902 2.85099 -2.27245
lowerneck -17.5147 8.71767 14.3738
upperneck 27.7804 13.7038 -14.1437
head 14.5835 6.04902 -5.56543
rclavicle 3.04141e-014 -8.74653e-015
rhumerus -36.4006 29.5883 -91.1837
rradius 62.6371
rwrist -27.3349
rhand -25.5895 -36.5605
rfingers 7.12502
rthumb 0.942202 -66.5381
lclavicle 3.04141e-014 -8.74653e-015
lhumerus -52.5848 -11.5453 82.3138
lradius 29.5483
lwrist 1.27435
lhand -22.2496 -21.2635
lfingers 7.12502
lthumb 4.16775 8.6755
rfemur -17.7005 2.7803 6.35209
rtibia 57.3018
rfoot -16.1983 -3.059
rtoes -11.4373
lfemur -10.8122 0.320131 -36.4159
ltibia 23.4542
lfoot -13.7982 9.9515
ltoes 32.3252
691
root 39.8143 16.4569 16.4677 358.094 100.748 361.091
lowerback 13.0263 3.95203 -2.63281
upperback 5.56373 5.20205 -2.76508
thorax -1.39438 2.74151 -2.1302
lowerneck -18.3139 8.84919 13.2528
upperneck 28.5099 14.119 -13.5163
head 14.9996 6.14815 -5.0202
rclavicle 1.68967e-014 1.27222e-014
rhumerus -38.535 29.5284 -91.7926
rradius 60.6406
rwrist -27.2308
rhand -25.2978 -37.012
rfingers 7.12502
rthumb 1.22392 -66.9882
lclavicle 1.68967e-014 1.27222e-014
lhumerus -51.6804 -12.6504 83.7454
lradius 31.9006
lwrist 4.12801
lhand -22.88 -21.5834
lfingers 7.12502
lthumb 3.55896 8.3666
rfemur -18.6599 3.63161 6.21589
rtibia 54.0369
rfoot -16.8099 -3.69788
rtoes -12.2055
lfemur -10.2366 -0.359456 -36.057
ltibia 23.1541
lfoot -13.6423 9.11247
ltoes 31.3145
692
root 39.9845 16.5122 16.4404 360.733 102.541 363.297
lowerback 13.0245 3.7441 -2.15896
upperback 5.50466 4.97756 -2.41098
thorax -1.45496 2.62657 -1.99619
lowerneck -19.3303 8.88261 11.9464
upperneck 29.6591 14.3719 -12.4469
head 15.5628 6.19569 -4.29192
rclavicle -1.33186e-014 4.77083e-015
rhumerus -40.854 29.5222 -92.3897
rradius 58.9079
rwrist -27.3789
rhand -25.1252 -37.4608
rfingers 7.12502
rthumb 1.39068 -67.436
lclavicle -1.33186e-014 4.77083e-015
lhumerus -50.9605 -14.2292 85.2512
lradius 34.6151
lwrist 7.03174
lhand -23.3777 -21.3618
lfingers 7.12502
lthumb 3.0783 8.59577
rfemur -19.2156 4.52843 6.04972
rtibia 50.1666
rfoot -16.8512 -4.5788
rtoes -13.0183
lfemur -9.67866 -1.09472 -35.6309
ltibia 22.8719
lfoot -13.5149 8.0565
ltoes 30.2888
693
root 40.1692 16.5479 16.395 358.104 104.708 360.337
lowerback 13.0401 3.50317 -2.52364
upperback 5.56102 4.63008 -2.46956
thorax -1.43191 2.455 -1.80446
lowerneck -18.8205 8.88148 12.48
upperneck 29.4619 14.5428 -13.1939
head 15.5224 6.2786 -4.67348
rclavicle 3.04141e-014 1.03368e-014
rhumerus -43.216 29.3676 -93.0112
rradius 57.4355
rwrist -27.8959
rhand -25.2245 -37.8036
rfingers 7.12502
rthumb 1.29476 -67.7794
lclavicle 3.04141e-014 1.03368e-014
lhumerus -50.3271 -16.0029 86.4883
lradius 37.6334
lwrist 9.74648
lhand -23.5813 -21.0518
lfingers 7.12502
lthumb 2.88171 8.90844
rfemur -18.8209 5.1187 4.28702
rtibia 45.5978
rfoot -16.7586 -5.27254
rtoes -13.9075
lfemur -8.6304 -1.99911 -36.8131
ltibia 22.4955
lfoot -13.2854 6.83684
ltoes 28.3787
